# xmcd
#
# Track frame offsets: 
#        150
#        10735
#        27468
#        38277
#        53356
#        65818
#        78096
#        93510
#        104568
#        116267
#
# Disc length: 1707 seconds
#
# Revision: 0
# Processed by: cddbd v1.5.2PL0 Copyright (c) Steve Scherf et al.
# Submitted via: ExactAudioCopy v0.95b4
#
DISCID=6d06a90a
DTITLE=Red Simpson - Truckers' Christmas
DYEAR=1973
DGENRE=Country
TTITLE0=Truckin' Trees for Christmas
TTITLE1=Blue Blue Christmas (For this Truck Drivin' Man)
TTITLE2=Christmas Wheels
TTITLE3=The Old Christmas Truck
TTITLE4=Toys for Tots
TTITLE5=Santa's Comin' in a Big Ol' Truck
TTITLE6=Dad Will be Home for Christmas
TTITLE7=Little Toy Truck
TTITLE8=Gone Home for Christmas
TTITLE9=Out on the Road for Christmas
EXTD=
EXTT0=
EXTT1=
EXTT2=
EXTT3=
EXTT4=
EXTT5=
EXTT6=
EXTT7=
EXTT8=
EXTT9=
PLAYORDER=
